<svg xmlns="http://www.w3.org/2000/svg" data-name="Layer 1" viewBox="0 0 365 129.3">
  <path fill="#d4d4d3" d="M200.55 20.73h-.88a12.23 12.23 0 0 0-1.25.15l-1.45.25-5.28.91-4.8.91Q171.17 26 164 27.59a3.52 3.52 0 0 1-.79.12 2.06 2.06 0 0 1-.91-.24 43.28 43.28 0 0 1 1.67-4.74q.95-2.24 2.58-5.88l.67-1.4c.12-.24.29-.64.51-1.18a7.12 7.12 0 0 1 .82-1.49 2.3 2.3 0 0 1 1.52-.85.49.49 0 0 0 .36-.21 1.37 1.37 0 0 0 .25-.4c.6-1.78 1.09-3.39 1.45-4.85a1.39 1.39 0 0 0-.79-1.76 1.49 1.49 0 0 0-.66-.18 1.65 1.65 0 0 0-1.16.54A6 6 0 0 0 168 7q-2.37 4.32-4.43 9c-1.38 3.13-2.88 6.73-4.5 10.77a4.34 4.34 0 0 1-1 1.58 3 3 0 0 1-1.55.73c-1.61.28-3.78.73-6.49 1.33q-5 1.15-16.33 4.19l-6.67 1.76q-10.5 2.73-19.31 5.77a39.82 39.82 0 0 0-4.55 1.94c-.77.45-1.15.95-1.15 1.52a1.57 1.57 0 0 0 .18.67 1.28 1.28 0 0 0 1.15.78 2.29 2.29 0 0 0 1.16-.36 29.77 29.77 0 0 1 3.34-1.46q4.72-1.76 12.62-3.88l3.89-1.09q12.38-3.59 29.92-7.59l.7-.18a3.19 3.19 0 0 1 .82-.12 2.54 2.54 0 0 1 .85.18 5.45 5.45 0 0 1-.43 2c-.28.71-.47 1.2-.55 1.49q-2.3 6.67-3.94 12.74l-1.4 5.28q-1.69 6.51-3.68 14a12.08 12.08 0 0 1-3.24 3.47 31.12 31.12 0 0 1-5 2.82 3.46 3.46 0 0 1-1.46.42 1 1 0 0 1-.88-.45 4.33 4.33 0 0 1-.58-1.49 22.47 22.47 0 0 0-1-3.52 2.32 2.32 0 0 0-2.12-1.7 3.16 3.16 0 0 0-1.37.4 15.42 15.42 0 0 0-3.58 2.19q-.91.85-3 2.55l-1.7 1.46a4 4 0 0 0 0-.82 1.77 1.77 0 0 1 0-.58l1.7-8.44c.12-.6.18-.93.18-1a1.2 1.2 0 0 0-1-1.21 1.07 1.07 0 0 0-1.16.21 2.87 2.87 0 0 0-.72 1.43l-.55 3.09-.51 2.2a1.4 1.4 0 0 0-.58.17 18.06 18.06 0 0 1-3.28 1.37 39.58 39.58 0 0 1-4 .94c-1.94.4-3.37.74-4.31 1a3.07 3.07 0 0 1-.18-.91 2.83 2.83 0 0 1 .21-1 4.34 4.34 0 0 0 .28-.92 26.46 26.46 0 0 0 .73-5.7 15.07 15.07 0 0 0-.43-3.64 4.74 4.74 0 0 0-1.1-2.3 2.87 2.87 0 0 0-2.07-.82 5.28 5.28 0 0 0-2.3.67 4.94 4.94 0 0 0-1.28.91A16.4 16.4 0 0 0 99 63.68a2.28 2.28 0 0 0-.69.24l-.64.33a15.44 15.44 0 0 0-1.58.91q-4.3 2.73-13.72 8.84t-13.65 8.88a2.51 2.51 0 0 1-.31-.54 72.45 72.45 0 0 1 3.46-15q1.39-4.34 3.58-10.43c.29-.85.56-1.65.82-2.4s.5-1.43.7-2c.65-2 1.12-3.54 1.43-4.68a13.88 13.88 0 0 0 .45-3.58 3.14 3.14 0 0 0-.82-2.3 2.75 2.75 0 0 0-2.09-.85 3.67 3.67 0 0 0-1.09.12 7.68 7.68 0 0 0-2.13.91 15.75 15.75 0 0 0-3.3 1.87c-1 .75-2.24 1.71-3.62 2.88a92.37 92.37 0 0 0-20.39 24.4 55.01 55.01 0 0 1-2.55 4.07l-1.4 2.18a35.08 35.08 0 0 1 1.83-7.1q3.95-10.5 11.65-26.58l.55-1.16q2.85-6 4.64-10t3.25-8.23a12.82 12.82 0 0 0 .85-4.31 2.34 2.34 0 0 0-.55-1.66 1.89 1.89 0 0 0-1.46-.58 3.36 3.36 0 0 0-.73.06A5.28 5.28 0 0 0 59 19.34q-3.82 3.51-6.68 6.43c-1.9 1.94-3.68 3.93-5.34 5.95q-3.23 3.95-6.13 8.16c-1.94 2.81-4.31 6.37-7.1 10.65q-10 15.3-18.7 29.68-1.58 2.61-2.73 4.28a24.87 24.87 0 0 1-2.55 3.13c.37-1.5.85-3.11 1.46-4.83s1.21-3.38 1.82-5q2.19-5.72 7.1-15.78l.67-1.4q4.49-9.28 9.59-18c.69-1.17 1.33-2.4 1.94-3.7a3.73 3.73 0 0 0 .36-1.33 1.3 1.3 0 0 0-.71-1.19 1.65 1.65 0 0 0-.79-.24c-.57 0-1.08.42-1.52 1.27-.28.53-.67 1.32-1.15 2.37L24.71 47q-5.22 9.6-8.19 15.48A195.3 195.3 0 0 0 5.23 90.53c-.16.49-.31 1-.46 1.55a6.26 6.26 0 0 0-.21 1.55 5.33 5.33 0 0 0 .27 1.52 1.66 1.66 0 0 0 .88.85 1.58 1.58 0 0 0 .67.12 2.57 2.57 0 0 0 1.7-.91 19.12 19.12 0 0 0 2.22-2.37c.66-.85 1.46-1.94 2.39-3.28q2.74-3.89 5.77-8.59T25 70.66q3.45-5.62 4.37-7.08 6.24-10.32 10.8-17.36A129.4 129.4 0 0 1 55.24 26.8c.29-.28.74-.77 1.37-1.46s1.32-1.34 2.09-2.06a21.09 21.09 0 0 1 2.67-2 4.74 4.74 0 0 0-.37 1.33 16.72 16.72 0 0 1-.61 1.76q-4.07 9.16-7 15.48L51 45.07q-1.7 3.52-5 10.68-3.65 8-8 20.22c-.61 1.7-1.44 4.24-2.49 7.64l-1.46 4.8a4.6 4.6 0 0 0-.24 1.46 2.49 2.49 0 0 0 .27 1.21 1.21 1.21 0 0 0 .76.61 3.47 3.47 0 0 0 .61.12 1.63 1.63 0 0 0 1.18-.43A8.89 8.89 0 0 0 37.82 90a105.32 105.32 0 0 0 5.71-9.59q.91-1.71 2.85-5.1a108.82 108.82 0 0 1 9.23-13.66q2.23-2.73 7.34-8.19a58.46 58.46 0 0 1 10.62-8.8 3.29 3.29 0 0 1 1.43-.74.92.92 0 0 1 .67.24.89.89 0 0 1 .3.73 2.38 2.38 0 0 1-.12.64l-.18.57-.67 2.61c-.12.45-.46 1.6-1 3.46s-1.13 3.6-1.73 5.22q-2.37 6.31-4 11.47a85.18 85.18 0 0 0-2.52 10.26c-.24 1.38-.41 2.53-.51 3.46a18.59 18.59 0 0 0-.09 2.79 2.82 2.82 0 0 0 .5 1.63 1.44 1.44 0 0 0 1.19.58 3.06 3.06 0 0 0 1.51-.49 3.26 3.26 0 0 0 .58-.39c.22-.18.37-.31.46-.4q6.85-5 15-10.44c4.93-3.28 9.42-6.19 13.52-8.77-.07.33-.14.66-.2 1a9.9 9.9 0 0 0-.12 1.27 2.9 2.9 0 0 0 .6 2 3.94 3.94 0 0 1 .92 2.49 8.94 8.94 0 0 1-.55 2.61 22.91 22.91 0 0 0-1.46 7.16 6 6 0 0 0 .28 2 1.75 1.75 0 0 0 1.24 1.09 3.35 3.35 0 0 0 .73.12 2.15 2.15 0 0 0 1.21-.36 7.17 7.17 0 0 0 1.22-1.1 22.1 22.1 0 0 0 4.67-7.83 3.37 3.37 0 0 1 1-1.67 5.15 5.15 0 0 1 1.88-.81q6.44-1.59 9.65-2.31a5 5 0 0 0 1-.34l-.09.37c-.42 1.88-.76 3.67-1 5.37l-.06.73a1.47 1.47 0 0 0 .91 1.52 1.54 1.54 0 0 0 .67.12 1.61 1.61 0 0 0 1.52-1 7 7 0 0 1 1.36-1.76c.59-.57 1-1 1.19-1.22a31.23 31.23 0 0 1 7.52-6.16 5.75 5.75 0 0 1 .37 1.64q.54 2 .72 2.49a5.58 5.58 0 0 0 1.61 2.31 3.62 3.62 0 0 0 2.28.78 5.33 5.33 0 0 0 2.37-.6 36.13 36.13 0 0 0 6-3.74c-.42 1.62-.86 3.27-1.3 4.95q-3.56 13.47-4.34 16.09c-.2.72-.46 1.86-.79 3.4a35.63 35.63 0 0 1-1.06 4.37 9.12 9.12 0 0 1-1.85 3.21.92.92 0 0 0-.24.67 1.34 1.34 0 0 0 .42 1 1.26 1.26 0 0 0 1 .55 2.61 2.61 0 0 0 .85-.25 4.61 4.61 0 0 0 1.4-1.7 15.51 15.51 0 0 0 1.21-3.39l5.77-22 .36-1.45q4.67-17.62 7.52-27.71t5.46-17.39a3.93 3.93 0 0 1 1.24-1.92 5.06 5.06 0 0 1 2.18-.94l4.43-.91q10.2-2.07 15.36-3c2.59-.48 4.53-.87 5.82-1.15 3-.61 5.29-1 6.89-1.31s3.27-.45 5-.57a2 2 0 0 0 1.34-.4 1.29 1.29 0 0 0 .48-1.06c.07-1.07-.58-1.62-1.95-1.62ZM103.8 77.06c-.69 1.5-1.29 2.68-1.79 3.55A9.09 9.09 0 0 1 100 83a9.42 9.42 0 0 1-.06-1.22 14.61 14.61 0 0 1 1.39-6 1 1 0 0 1 .91-.66 3.87 3.87 0 0 1 1 .24 7.11 7.11 0 0 0 1.16.3 14.53 14.53 0 0 0-.6 1.4Zm2-5.77a3.58 3.58 0 0 1-.51 1.19 1 1 0 0 1-.76.33 3.82 3.82 0 0 1-1.28-.3 4.28 4.28 0 0 1-2.33-1.61 4.1 4.1 0 0 1-.52-2.76 11.09 11.09 0 0 1 3.76-7.29 2.5 2.5 0 0 1 1.4-.73c.69 0 1.15.63 1.4 1.89a6.15 6.15 0 0 1 .06 1 7.52 7.52 0 0 0 .06 1 35.27 35.27 0 0 1-1.28 7.28Z"/>
  <path fill="#d4d4d3" d="M190.17 71.05a1.11 1.11 0 0 0-.79-.36c-.49 0-1.07.42-1.76 1.27l-.3.42a49.46 49.46 0 0 1-5.13 5.1 15.77 15.77 0 0 1-5.25 3.34 6.51 6.51 0 0 1-2 .37q-2.73 0-2.73-4a.93.93 0 0 1 .31-.82 4.53 4.53 0 0 1 1-.46 6.33 6.33 0 0 0 1.39-.6 21.39 21.39 0 0 0 5-4 17.71 17.71 0 0 0 3.31-5.25 5.14 5.14 0 0 0 .42-1.7 5.27 5.27 0 0 0-.12-.85 3.6 3.6 0 0 0-1.15-1.79 2.92 2.92 0 0 0-1.88-.63 4.19 4.19 0 0 0-2 .48 15.61 15.61 0 0 0-5.32 4.21 15.86 15.86 0 0 0-.93 1.38 3.12 3.12 0 0 1-.57.74l-.4.29a2.67 2.67 0 0 0-.36.31c-.67.62-1.32 1.25-2 1.88l-3.38 3.17-2.2 2.07-.1.09q-1.58-3.77-3.94-8.31L158 64.8a2.46 2.46 0 0 1-.3-1 1.55 1.55 0 0 1 .79-1.28 25.55 25.55 0 0 1 3-1.91 4.8 4.8 0 0 1 2.64-.46 1.32 1.32 0 0 0 1.52-1.39c0-1-.63-1.52-1.76-1.52a2.06 2.06 0 0 0-1 .18 28.63 28.63 0 0 0-4.86 2q-3 1.58-3 4.18a7.44 7.44 0 0 0 .85 3.22l4 8.26a7.11 7.11 0 0 1 .85 3.33 7.62 7.62 0 0 1-1.58 4.43 14.39 14.39 0 0 0-2.54 6 5.14 5.14 0 0 0-.07 1 3.57 3.57 0 0 0 .64 2.22 2.2 2.2 0 0 0 1.85.82 3.91 3.91 0 0 0 3-1.52 10.88 10.88 0 0 0 2.61-6.74 6.18 6.18 0 0 0-.13-1.51 13.14 13.14 0 0 1-.12-1.4 7.24 7.24 0 0 1 1.95-4.85A7.58 7.58 0 0 0 167 76c.21-.29.41-.55.61-.79s.89-.92 2.21-2.16a42.46 42.46 0 0 0-1 4.1c0 2.55.53 4.47 1.7 5.76a5.53 5.53 0 0 0 4.25 2 6.9 6.9 0 0 0 2.73-.61 29.16 29.16 0 0 0 6.71-4.46 35.57 35.57 0 0 0 5.8-5.92 3.42 3.42 0 0 0 .67-1.64 1.64 1.64 0 0 0-.51-1.23Zm-30 18c-.52.28-.78.12-.78-.49a7.59 7.59 0 0 1 .72-2.64 16 16 0 0 1 1.7-3.07 2.64 2.64 0 0 1 .13.64 11.12 11.12 0 0 1 .06 1.25q0 3.26-1.88 4.26Zm14.58-19.85a27.87 27.87 0 0 1 2.67-3.55 12 12 0 0 1 1.34-1.19 1.8 1.8 0 0 1 1-.39.92.92 0 0 1 .67.24.87.87 0 0 1 .3.55 1.38 1.38 0 0 1-.27.76 2.89 2.89 0 0 0-.34.57 17.26 17.26 0 0 1-6.79 6.74 10.4 10.4 0 0 1 1.42-3.73ZM207.22 118.88a8.82 8.82 0 0 1-1.27-4.61 11.14 11.14 0 0 1 .76-4.13 40.81 40.81 0 0 1 2.21-4.62A64.9 64.9 0 0 1 216 95.33q4.07-4.74 7.82-8.44l1.58-1.52q4.47-4.37 7.8-7.37a120.05 120.05 0 0 1 10.44-8.5l2.79-1.94c2.59-1.86 4.56-3.2 5.89-4q2.67-1.69 4-2.61a61.63 61.63 0 0 1 5.46-3.46 1.09 1.09 0 0 0 .67-1 2 2 0 0 0-.12-.73 4.08 4.08 0 0 0-1.64-2.06 7.25 7.25 0 0 0-2.67-.91 11.39 11.39 0 0 0-2.07-.18 6.14 6.14 0 0 0-1.39.12 35.17 35.17 0 0 0-5 .24q-2.49.31-6.19.91-6.64 1.12-10.17 1.39l-1.27.06q-1.71.12-2.49.12a12.94 12.94 0 0 1-4.25-.61 5.49 5.49 0 0 1-3.34-2.64 9.71 9.71 0 0 1-1-4.52 13 13 0 0 1 .73-4.34 33.15 33.15 0 0 1 2-4.52 36.07 36.07 0 0 1 6.86-8.74 69.7 69.7 0 0 1 6.19-5.37 23.57 23.57 0 0 1 6.19-3.37c1.78-.65 3.17-1.12 4.16-1.43a10.93 10.93 0 0 1 3.19-.45 8.3 8.3 0 0 1 1.64.12 23.08 23.08 0 0 1 4 1 7 7 0 0 1 2.82 2 11 11 0 0 1 1.25 1.73 4.25 4.25 0 0 1 .51 1.79c0 .89-.36 1.42-1.09 1.58h-.24a1 1 0 0 1-.73-.3 1.67 1.67 0 0 1-.42-.79 4 4 0 0 0-2.19-3.22 9.49 9.49 0 0 0-5.34-1.33 22.56 22.56 0 0 0-9.89 3.52q-2.37 1.52-3.71 2.46a18.87 18.87 0 0 0-2.55 2.15 70.43 70.43 0 0 0-6.7 7.56 19.94 19.94 0 0 0-3.43 7.55 13.46 13.46 0 0 0-.37 3.22 3.75 3.75 0 0 0 1 2.7 4.88 4.88 0 0 0 2.74 1.31 18.65 18.65 0 0 0 2.61.18 34.05 34.05 0 0 0 5.52-.55l2.73-.36c2.43-.32 4.25-.59 5.46-.79 2.47-.4 4.64-.72 6.5-.94a47 47 0 0 1 5.52-.34 17.17 17.17 0 0 1 4.25.49 7.24 7.24 0 0 1 4.55 3.52c.16.28.32.57.46.85s.27.43.39.43a1.66 1.66 0 0 0 .64-.28c.3-.18.53-.33.7-.45.4-.25.76-.47 1.06-.67s.58-.36.82-.49l1.09-.72a2 2 0 0 1 1-.37 1.05 1.05 0 0 1 .91.55 1.27 1.27 0 0 1-.54 1.82c-2 1.37-3.54 2.39-4.56 3a1.28 1.28 0 0 0-.66 1.28 13.68 13.68 0 0 1 .06 1.52 29.54 29.54 0 0 1-.7 6.31 71.84 71.84 0 0 1-2 7q-.92 2.55-2 5c-.75 1.61-1.73 3.62-2.94 6l-.61 1.22a97.84 97.84 0 0 1-9.59 15.17 60.68 60.68 0 0 1-9.53 10.14q-4.78 3.95-8.16 6.28a32.48 32.48 0 0 1-7.31 3.79 21.14 21.14 0 0 1-7.41 1.46 15.36 15.36 0 0 1-4.92-.79 6.56 6.56 0 0 1-3.59-2.89Zm8.08.85a17.72 17.72 0 0 0 8.74-2.19 74.46 74.46 0 0 0 13.41-9.41 74.11 74.11 0 0 0 10.14-11.35q2.31-3.15 6.07-9.65l.6-1c.17-.24.68-1.11 1.55-2.61a31.6 31.6 0 0 0 2.19-4.46q1.75-4.31 2.64-6.74c.58-1.61 1.1-3.29 1.54-5a26 26 0 0 0 .85-7.71c-.77.56-2.24 1.54-4.43 2.91l-2.67 1.64q-5.64 3.65-10.68 7.4a142.49 142.49 0 0 0-16.33 14l-2.43 2.36a110.27 110.27 0 0 0-7.89 8.38c-1.82 2.22-3.35 4.22-4.61 6a39.41 39.41 0 0 0-3.28 5.49 27.44 27.44 0 0 0-1.45 3.4 9.34 9.34 0 0 0-.49 3 5.9 5.9 0 0 0 1.15 3.68 4.51 4.51 0 0 0 3.1 1.73q1.55.13 2.28.13ZM277.81 48.23c.33.08.78-.17 1.37-.76a2.84 2.84 0 0 0 .94-1.49c0-.73-.47-1.09-1.4-1.09-1.37 0-2 .51-2 1.52s.36 1.59 1.09 1.82ZM310.41 55.94a1.2 1.2 0 0 0 .85-.37c.48-.44.91-.87 1.27-1.27l1.64-2c1.29-1.61 2.39-2.89 3.28-3.82a15 15 0 0 1 3-2.43 1.77 1.77 0 0 0 .85-1.51c-.16-.65-.5-1-1-1l-.3.06a4.15 4.15 0 0 0-2.19 1.4q-2 2-6 6.25A28.4 28.4 0 0 0 309.5 54a1.37 1.37 0 0 0-.31.79 1.06 1.06 0 0 0 .43.85 1 1 0 0 0 .79.3ZM358.17 67.35a1 1 0 0 0-.54-.12c-.37 0-.69.24-1 .72a12.33 12.33 0 0 1-3.34 3.62 31.7 31.7 0 0 1-5 2.82 3.42 3.42 0 0 1-1.46.42 1.06 1.06 0 0 1-.88-.45 4.35 4.35 0 0 1-.57-1.49 23.64 23.64 0 0 0-1-3.52 2.34 2.34 0 0 0-2.13-1.7 3.13 3.13 0 0 0-1.39.36 15.52 15.52 0 0 0-3.59 2.19q-.9.85-3 2.55l-1.7 1.46a4 4 0 0 0 0-.82 1.77 1.77 0 0 1 0-.58l1.7-8.44c.12-.6.18-.93.18-1a1.19 1.19 0 0 0-1-1.21 1 1 0 0 0-1.15.21 2.87 2.87 0 0 0-.73 1.43l-.55 3.09-.5 2.2a1.44 1.44 0 0 0-.59.17 17.76 17.76 0 0 1-3.28 1.37 39.33 39.33 0 0 1-4 .94c-1.94.4-3.38.74-4.31 1a3.07 3.07 0 0 1-.18-.91 2.83 2.83 0 0 1 .21-1 4.88 4.88 0 0 0 .27-.92 25.85 25.85 0 0 0 .73-5.7 15.08 15.08 0 0 0-.42-3.64 4.74 4.74 0 0 0-1.22-2.34 2.84 2.84 0 0 0-2.06-.82 5.28 5.28 0 0 0-2.31.67 4.89 4.89 0 0 0-1.27.91 16.56 16.56 0 0 0-4.68 9.23 9.9 9.9 0 0 0-.12 1.27 2.9 2.9 0 0 0 .61 2 4.6 4.6 0 0 1 .51.84.76.76 0 0 0-.27 0 1.61 1.61 0 0 0-1.15.73.81.81 0 0 1-.49.3.52.52 0 0 1-.36-.18 5.63 5.63 0 0 1-.24-1.76V68.14a6.05 6.05 0 0 0-.4-2.07c-.48-1.29-1.25-1.94-2.3-1.94a2.73 2.73 0 0 0-1.58.49 8.94 8.94 0 0 0-1.46 1.09l-2.06 1.88q-3.4 3-5 4.73c-.08.13-.22.32-.42.58a1 1 0 0 1-.79.4h-.19a2.69 2.69 0 0 1-.48-1.49 6.12 6.12 0 0 0-.18-1.31c-.57-1.74-1.5-2.61-2.8-2.61a3 3 0 0 0-2.24 1.34l-2.91 3.34-.37-.37 1.46-4.67a6.91 6.91 0 0 0 .3-1.64 1.16 1.16 0 0 0-.91-1.27 1.52 1.52 0 0 0-.48-.07q-1.28 0-1.89 1.89l-.12.54c-.37 1.12-.73 2.27-1.07 3.48q-.45.53-1.05 1.26-5 6.18-9.23 10.38c-1.13 1.09-2 1.64-2.49 1.64-.32 0-.48-.27-.48-.79a9.68 9.68 0 0 1 .39-2.16c.27-1 .58-2.05.94-3.19l2.55-8.43c1.13-3.77 1.88-6.21 2.25-7.35a7.85 7.85 0 0 0 .36-2 1.17 1.17 0 0 0-.79-1.21c-.69-.25-1.25 0-1.7.85a43 43 0 0 0-2.21 6.22q-1.49 4.89-2.82 10a35 35 0 0 0-1.34 7.47c0 2.34.81 3.52 2.43 3.52a8.22 8.22 0 0 0 .91-.12c1.49-.29 3.43-1.69 5.79-4.22 1.45-1.55 3.07-3.39 4.86-5.54-.23.94-.39 1.57-.45 1.87l-.73 3a3.29 3.29 0 0 0-.18 1 1.56 1.56 0 0 0 .91 1.46 1.5 1.5 0 0 0 .66.12c.69 0 1.28-.48 1.76-1.46a31.09 31.09 0 0 1 2.68-4.67q1.51-2.19 3.94-5.34a2.21 2.21 0 0 0 .24-.43.63.63 0 0 1 .79-.34 2.51 2.51 0 0 1 .42.12 7.08 7.08 0 0 1 .19 1.7 8.59 8.59 0 0 0 .48 2.61 2 2 0 0 0 1.82 1.4 3.13 3.13 0 0 0 1.16-.31 6.91 6.91 0 0 0 2.24-1.76c1.94-2.14 3.75-4 5.4-5.7a16.51 16.51 0 0 1 1.73-1.55 3.57 3.57 0 0 1 1.67-.64q.12 1.83.12 2.25c0 .52.07 1.31.07 2.37a3.82 3.82 0 0 0 1.27 3 3.14 3.14 0 0 0 2.12.85 2.87 2.87 0 0 0 1.61-.49 2.19 2.19 0 0 0 .44-.35c-.08.3-.17.62-.29 1a22.86 22.86 0 0 0-1.45 7.11 6.34 6.34 0 0 0 .27 2 1.77 1.77 0 0 0 1.24 1.09 3.44 3.44 0 0 0 .73.12 2.18 2.18 0 0 0 1.22-.36 7.55 7.55 0 0 0 1.21-1.1 22.1 22.1 0 0 0 4.67-7.83 3.38 3.38 0 0 1 1-1.67 5.08 5.08 0 0 1 1.88-.81c4.29-1.06 7.5-1.83 9.65-2.31a4.88 4.88 0 0 0 1-.34c0 .12-.05.24-.08.37q-.65 2.82-1 5.37l-.06.73a1.47 1.47 0 0 0 .91 1.52 1.5 1.5 0 0 0 .66.12 1.6 1.6 0 0 0 1.52-1 7.06 7.06 0 0 1 1.37-1.76c.58-.57 1-1 1.18-1.22a31.46 31.46 0 0 1 7.47-6.13 5.73 5.73 0 0 1 .36 1.64c.37 1.3.61 2.13.73 2.49a5.4 5.4 0 0 0 1.61 2.31 3.59 3.59 0 0 0 2.27.78 5.33 5.33 0 0 0 2.37-.6 33.34 33.34 0 0 0 7.82-5.24 7.79 7.79 0 0 0 1.82-2.86 1.25 1.25 0 0 0-.65-1.57Zm-44.49 9.71a39.41 39.41 0 0 1-1.79 3.55 8.9 8.9 0 0 1-2 2.34 9.42 9.42 0 0 1-.06-1.22 14.47 14.47 0 0 1 1.4-6 1 1 0 0 1 .91-.66 4 4 0 0 1 1 .24 7 7 0 0 0 1.15.3c-.29.64-.48 1.12-.61 1.45Zm2-5.77a3.56 3.56 0 0 1-.52 1.19.92.92 0 0 1-.76.33 3.77 3.77 0 0 1-1.27-.3 4.31 4.31 0 0 1-2.34-1.61 4.1 4.1 0 0 1-.51-2.76 11 11 0 0 1 3.76-7.29 2.45 2.45 0 0 1 1.39-.73c.69 0 1.16.63 1.4 1.89a6.15 6.15 0 0 1 .06 1 7.52 7.52 0 0 0 .06 1 35.2 35.2 0 0 1-1.26 7.28Z"/>
</svg>
