<?xml version="1.0" encoding="utf-8"?>
<!-- Generator: Adobe Illustrator 28.6.0, SVG Export Plug-In . SVG Version: 9.03 Build 54939)  -->
<svg version="1.1" id="Layer_1" xmlns="http://www.w3.org/2000/svg" xmlns:xlink="http://www.w3.org/1999/xlink" x="0px" y="0px"
	 viewBox="0 0 200 200" style="enable-background:new 0 0 200 200;" xml:space="preserve">
<style type="text/css">
	.st0{fill:#FFFFFF;}
</style>
<path class="st0" d="M131.4,159.6l-0.2-1.4c-0.1-0.5-0.4-1-0.8-1.3c-0.3-0.2-0.7-0.4-1.2-0.4c-0.1,0-0.2,0-0.4,0
	c-2,0.4-4.2,0.4-6.5,0.4c-18.8,0-28.7-16.6-35.8-33.1l22.8-54.2v52.6c0,4.1-1.6,5.2-3.3,5.8c-0.9,0.3-1.5,1.2-1.4,2.2
	c0.2,1,1,1.7,2,1.7h14.6c1,0,1.8-0.7,2-1.7c0.2-1-0.4-1.9-1.3-2.2c-1.7-0.6-3.4-1.7-3.4-5.8V64.2c0-4.1,1.7-5.2,3.3-5.7
	c0.8-0.3,1.4-1,1.4-1.9c0-1.1-0.9-2-2-2h0h-9.9c-0.8,0-1.5,0.5-1.8,1.2l-25.7,61.4c-1.3-3.2-2.5-6-3.5-8.5c-4.1-10-6.2-15.1-10-23
	c-8.2-16.8-20.6-42.3-49.7-42.3c-4.9,0-10,0.7-15.1,2.2c-0.5,0.2-1,0.5-1.3,1C4,47.2,4,47.8,4.2,48.3l0.4,1.1
	c0.3,0.8,1.1,1.3,1.9,1.3c0.2,0,0.3,0,0.5-0.1c4.5-1.2,8.5-1.7,12.1-1.7c10.3,0,19.2,3.9,26.3,11.7v61.9c0,1.8-0.5,4.3-5.3,5.7
	c-0.9,0.3-1.5,1.2-1.4,2.2c0.1,1,1,1.7,2,1.7h14.6c1,0,1.8-0.7,2-1.7c0.1-1-0.4-1.9-1.4-2.2c-4.8-1.5-5.3-4-5.3-5.7V67.2
	c5.1,7.7,8.7,16.3,12.4,25.3c1.1,2.6,2.2,5.3,3.4,8c0.9,2.1,1.8,4.2,2.7,6.3c5.2,12.2,10.5,24.8,19,36c9.7,12.8,21.8,19.6,35,19.6
	c2.3,0,4.7-0.2,6.6-0.4c0.5-0.1,1-0.3,1.4-0.8C131.3,160.7,131.5,160.2,131.4,159.6z"/>
<path class="st0" d="M195.7,124.2c-0.1-16.2-15.7-28.4-26.1-36.5c-1.4-1.1-2.8-2.2-3.9-3.1c-0.5-0.4-1-0.9-1.5-1.3
	c-4.9-4.4-10.5-9.4-10.5-15.6c0-6.2,4.3-10,11.5-10c8.4,0,14.4,8,15.6,13.7c0.2,0.9,1,1.6,2,1.6c0.1,0,0.1,0,0.2,0
	c1-0.1,1.8-1,1.8-2V56.6c0-0.9-0.6-1.7-1.4-1.9c-0.2-0.1-0.4-0.1-0.6-0.1c-0.7,0-1.3,0.3-1.7,0.9c-0.3,0.4-0.5,0.5-0.8,0.5
	c-0.9,0-2.9-0.6-4.9-1.1c-3.2-0.9-6.9-2-10.1-2c-7.8,0-17,4.1-17,15.6c0,8.7,7.4,16.5,11.8,21.1l0.4,0.4c2.2,2.3,4.5,4.6,6.8,6.8
	c8.9,8.7,18.1,17.7,19.6,28.1c0,0.6,0,1.2,0.1,1.9v1.7c0,6.6-1.9,12.5-5.6,16.9c-4.1,5-10,8-17.6,9h-3.8
	c-16.8,0-25.9-13.1-25.9-25.4c0-12.3,7.3-25.5,23.4-25.5c0.2,0,0.5,0,0.8,0c0.4,0,0.8,0.1,1.1,0.1c1,0,1.8-0.7,2-1.6l0.1-0.5
	c0.1-0.6,0-1.2-0.4-1.7c-0.4-0.5-0.9-0.7-1.5-0.7c-0.7,0-1.3,0-2-0.1c-0.7,0-1.3-0.1-2-0.1c-14.2,0-29.5,8.9-29.5,28.4
	c0,16.1,12.1,29.2,29.4,32c2.7,0.7,5.8,0.7,8.5,0.7c0.1,0,0.1,0,0.2,0c15.3-1.2,31.5-10.6,31.5-33.6
	C195.8,125.8,195.8,125,195.7,124.2z"/>
</svg>
